<?xml version="1.0" encoding="utf-8"?>
<!-- Generator: Adobe Illustrator 23.1.0, SVG Export Plug-In . SVG Version: 6.00 Build 0)  -->
<svg version="1.1" id="Capa_1" xmlns="http://www.w3.org/2000/svg" xmlns:xlink="http://www.w3.org/1999/xlink" x="0px" y="0px"
	 viewBox="0 0 292.7 292.7" enable-background="new 0 0 292.7 292.7" xml:space="preserve">
<path stroke="#000000" stroke-width="7.2313" stroke-miterlimit="10" d="M266.9,272.4H26.4c-3.1,0-5.7-2.6-5.7-5.7V26.3
	c0-3.1,2.6-5.7,5.7-5.7h240.5c3.1,0,5.7,2.6,5.7,5.7v240.5C272.6,269.9,270,272.4,266.9,272.4z"/>
<path fill="#FFFFFF" d="M146.7,153.3c3.7,0,6.9-1.3,9.6-4.1c2.7-2.7,4.1-5.9,4.1-9.6V71.3c0-3.7-1.4-6.9-4.1-9.6
	c-2.7-2.7-5.9-4.1-9.6-4.1c-3.7,0-6.9,1.4-9.6,4.1c-2.7,2.7-4.1,5.9-4.1,9.6v68.3c0,3.7,1.4,6.9,4.1,9.6
	C139.8,152,143,153.3,146.7,153.3z"/>
<path fill="#FFFFFF" d="M220.1,116.7c-5.7-11.5-13.8-21.1-24.2-28.8c-3-2.3-6.4-3.2-10.1-2.7c-3.8,0.5-6.8,2.3-9,5.3
	c-2.3,3-3.1,6.4-2.6,10.1c0.5,3.7,2.3,6.7,5.3,9c7,5.3,12.4,11.7,16.2,19.3c3.8,7.6,5.7,15.7,5.7,24.3c0,7.4-1.4,14.5-4.3,21.2
	c-2.9,6.7-6.8,12.5-11.7,17.5c-4.9,4.9-10.7,8.8-17.5,11.7c-6.7,2.9-13.8,4.3-21.2,4.3c-7.4,0-14.5-1.4-21.2-4.3
	c-6.7-2.9-12.5-6.8-17.5-11.7c-4.9-4.9-8.8-10.7-11.7-17.5c-2.9-6.7-4.3-13.8-4.3-21.2c0-8.6,1.9-16.7,5.7-24.3
	c3.8-7.6,9.2-14.1,16.2-19.3c3-2.3,4.7-5.3,5.3-9c0.5-3.7-0.3-7.1-2.6-10.1c-2.2-3.1-5.2-4.8-8.9-5.3c-3.7-0.5-7.1,0.4-10.2,2.7
	c-10.4,7.8-18.5,17.4-24.2,28.8c-5.7,11.5-8.6,23.7-8.6,36.6c0,11.1,2.2,21.7,6.5,31.8c4.3,10.1,10.2,18.8,17.5,26.2
	c7.3,7.3,16,13.2,26.2,17.5c10.1,4.3,20.7,6.5,31.8,6.5c11.1,0,21.7-2.2,31.8-6.5c10.1-4.3,18.8-10.2,26.2-17.5
	c7.3-7.3,13.2-16,17.5-26.2c4.3-10.1,6.5-20.7,6.5-31.8C228.7,140.4,225.8,128.2,220.1,116.7z"/>
</svg>
